<mxfile host="app.diagrams.net" modified="2021-07-09T01:59:35.959Z" agent="5.0 (Windows NT 10.0; Win64; x64) AppleWebKit/537.36 (KHTML, like Gecko) Chrome/90.0.4430.212 Safari/537.36" etag="oC3gFQ3km_1eDRQoIWL0" version="14.8.4" type="github">
  <diagram id="uJecQscuBBFfsl-j5q46" name="Page-1">
    <mxGraphModel dx="2249" dy="1888" grid="1" gridSize="10" guides="1" tooltips="1" connect="1" arrows="1" fold="1" page="1" pageScale="1" pageWidth="827" pageHeight="1169" math="0" shadow="0">
      <root>
        <mxCell id="0" />
        <mxCell id="1" parent="0" />
        <mxCell id="Ye2cRBay2JUj2pcL1aTp-46" style="edgeStyle=orthogonalEdgeStyle;rounded=0;orthogonalLoop=1;jettySize=auto;html=1;exitX=0.5;exitY=1;exitDx=0;exitDy=0;entryX=0.5;entryY=0;entryDx=0;entryDy=0;fontSize=15;" parent="1" source="Ye2cRBay2JUj2pcL1aTp-3" target="Ye2cRBay2JUj2pcL1aTp-5" edge="1">
          <mxGeometry relative="1" as="geometry" />
        </mxCell>
        <mxCell id="Ye2cRBay2JUj2pcL1aTp-3" value="挂号" style="rounded=0;whiteSpace=wrap;html=1;fontSize=15;" parent="1" vertex="1">
          <mxGeometry x="610" y="10" width="100" height="40" as="geometry" />
        </mxCell>
        <mxCell id="Ye2cRBay2JUj2pcL1aTp-43" value="" style="edgeStyle=orthogonalEdgeStyle;rounded=0;orthogonalLoop=1;jettySize=auto;html=1;fontSize=15;" parent="1" source="Ye2cRBay2JUj2pcL1aTp-5" target="Ye2cRBay2JUj2pcL1aTp-7" edge="1">
          <mxGeometry relative="1" as="geometry" />
        </mxCell>
        <mxCell id="Ye2cRBay2JUj2pcL1aTp-5" value="护士分诊" style="rounded=0;whiteSpace=wrap;html=1;fontSize=15;" parent="1" vertex="1">
          <mxGeometry x="610" y="70" width="100" height="40" as="geometry" />
        </mxCell>
        <mxCell id="Ye2cRBay2JUj2pcL1aTp-10" style="edgeStyle=orthogonalEdgeStyle;rounded=0;orthogonalLoop=1;jettySize=auto;html=1;exitX=0.5;exitY=1;exitDx=0;exitDy=0;fontSize=15;" parent="1" source="Ye2cRBay2JUj2pcL1aTp-7" target="Ye2cRBay2JUj2pcL1aTp-9" edge="1">
          <mxGeometry relative="1" as="geometry" />
        </mxCell>
        <mxCell id="Ye2cRBay2JUj2pcL1aTp-7" value="医生诊疗（问诊、查体、开单、初步诊断处置）" style="rounded=0;whiteSpace=wrap;html=1;fontSize=15;fillColor=#f8cecc;strokeColor=#b85450;" parent="1" vertex="1">
          <mxGeometry x="570" y="130" width="180" height="70" as="geometry" />
        </mxCell>
        <mxCell id="Ye2cRBay2JUj2pcL1aTp-12" style="edgeStyle=orthogonalEdgeStyle;rounded=0;orthogonalLoop=1;jettySize=auto;html=1;exitX=0.5;exitY=1;exitDx=0;exitDy=0;entryX=0.5;entryY=0;entryDx=0;entryDy=0;fontSize=15;" parent="1" source="Ye2cRBay2JUj2pcL1aTp-9" target="Ye2cRBay2JUj2pcL1aTp-11" edge="1">
          <mxGeometry relative="1" as="geometry" />
        </mxCell>
        <mxCell id="Ye2cRBay2JUj2pcL1aTp-9" value="收费处划价缴费" style="rounded=0;whiteSpace=wrap;html=1;fontSize=15;" parent="1" vertex="1">
          <mxGeometry x="595" y="224" width="130" height="40" as="geometry" />
        </mxCell>
        <mxCell id="Ye2cRBay2JUj2pcL1aTp-14" style="edgeStyle=orthogonalEdgeStyle;rounded=0;orthogonalLoop=1;jettySize=auto;html=1;exitX=0.5;exitY=1;exitDx=0;exitDy=0;entryX=0.5;entryY=0;entryDx=0;entryDy=0;fontSize=15;" parent="1" source="Ye2cRBay2JUj2pcL1aTp-11" target="Ye2cRBay2JUj2pcL1aTp-13" edge="1">
          <mxGeometry relative="1" as="geometry" />
        </mxCell>
        <mxCell id="Ye2cRBay2JUj2pcL1aTp-11" value="前往相关科室进行放射、超声、化验室及其他辅助科室检查等" style="rounded=0;whiteSpace=wrap;html=1;fontSize=15;fillColor=#f8cecc;strokeColor=#b85450;" parent="1" vertex="1">
          <mxGeometry x="580" y="290" width="160" height="80" as="geometry" />
        </mxCell>
        <mxCell id="Ye2cRBay2JUj2pcL1aTp-16" style="edgeStyle=orthogonalEdgeStyle;rounded=0;orthogonalLoop=1;jettySize=auto;html=1;exitX=0.5;exitY=1;exitDx=0;exitDy=0;entryX=0.5;entryY=0;entryDx=0;entryDy=0;fontSize=15;" parent="1" source="Ye2cRBay2JUj2pcL1aTp-13" target="Ye2cRBay2JUj2pcL1aTp-15" edge="1">
          <mxGeometry relative="1" as="geometry" />
        </mxCell>
        <mxCell id="Ye2cRBay2JUj2pcL1aTp-13" value="等候结果" style="rounded=0;whiteSpace=wrap;html=1;fontSize=15;" parent="1" vertex="1">
          <mxGeometry x="595" y="400" width="130" height="40" as="geometry" />
        </mxCell>
        <mxCell id="Ye2cRBay2JUj2pcL1aTp-20" style="edgeStyle=orthogonalEdgeStyle;rounded=0;orthogonalLoop=1;jettySize=auto;html=1;exitX=1;exitY=0.5;exitDx=0;exitDy=0;entryX=0;entryY=0.5;entryDx=0;entryDy=0;fontSize=15;" parent="1" source="Ye2cRBay2JUj2pcL1aTp-15" target="Ye2cRBay2JUj2pcL1aTp-17" edge="1">
          <mxGeometry relative="1" as="geometry" />
        </mxCell>
        <mxCell id="Ye2cRBay2JUj2pcL1aTp-21" style="edgeStyle=orthogonalEdgeStyle;rounded=0;orthogonalLoop=1;jettySize=auto;html=1;exitX=1;exitY=0.5;exitDx=0;exitDy=0;fontSize=15;" parent="1" source="Ye2cRBay2JUj2pcL1aTp-15" target="Ye2cRBay2JUj2pcL1aTp-18" edge="1">
          <mxGeometry relative="1" as="geometry" />
        </mxCell>
        <mxCell id="Ye2cRBay2JUj2pcL1aTp-22" style="edgeStyle=orthogonalEdgeStyle;rounded=0;orthogonalLoop=1;jettySize=auto;html=1;exitX=1;exitY=0.5;exitDx=0;exitDy=0;entryX=0;entryY=0.5;entryDx=0;entryDy=0;fontSize=15;" parent="1" source="Ye2cRBay2JUj2pcL1aTp-15" target="Ye2cRBay2JUj2pcL1aTp-19" edge="1">
          <mxGeometry relative="1" as="geometry" />
        </mxCell>
        <mxCell id="Ye2cRBay2JUj2pcL1aTp-15" value="请医生查看结果" style="rounded=0;whiteSpace=wrap;html=1;fontSize=15;" parent="1" vertex="1">
          <mxGeometry x="595" y="470" width="130" height="40" as="geometry" />
        </mxCell>
        <mxCell id="Ye2cRBay2JUj2pcL1aTp-26" style="edgeStyle=orthogonalEdgeStyle;rounded=0;orthogonalLoop=1;jettySize=auto;html=1;exitX=1;exitY=0.5;exitDx=0;exitDy=0;fontSize=15;" parent="1" source="Ye2cRBay2JUj2pcL1aTp-17" target="Ye2cRBay2JUj2pcL1aTp-25" edge="1">
          <mxGeometry relative="1" as="geometry" />
        </mxCell>
        <mxCell id="Ye2cRBay2JUj2pcL1aTp-17" value="一般病情" style="rounded=0;whiteSpace=wrap;html=1;fontSize=15;" parent="1" vertex="1">
          <mxGeometry x="790" y="390" width="130" height="40" as="geometry" />
        </mxCell>
        <mxCell id="Ye2cRBay2JUj2pcL1aTp-24" style="edgeStyle=orthogonalEdgeStyle;rounded=0;orthogonalLoop=1;jettySize=auto;html=1;exitX=1;exitY=0.5;exitDx=0;exitDy=0;fontSize=15;" parent="1" source="Ye2cRBay2JUj2pcL1aTp-18" target="Ye2cRBay2JUj2pcL1aTp-23" edge="1">
          <mxGeometry relative="1" as="geometry" />
        </mxCell>
        <mxCell id="Ye2cRBay2JUj2pcL1aTp-18" value="检查正常" style="rounded=0;whiteSpace=wrap;html=1;fontSize=15;" parent="1" vertex="1">
          <mxGeometry x="790" y="470" width="130" height="40" as="geometry" />
        </mxCell>
        <mxCell id="Ye2cRBay2JUj2pcL1aTp-39" style="edgeStyle=orthogonalEdgeStyle;rounded=0;orthogonalLoop=1;jettySize=auto;html=1;exitX=1;exitY=0.5;exitDx=0;exitDy=0;fontSize=15;" parent="1" source="Ye2cRBay2JUj2pcL1aTp-19" target="Ye2cRBay2JUj2pcL1aTp-38" edge="1">
          <mxGeometry relative="1" as="geometry" />
        </mxCell>
        <mxCell id="Ye2cRBay2JUj2pcL1aTp-19" value="需要住院" style="rounded=0;whiteSpace=wrap;html=1;fontSize=15;" parent="1" vertex="1">
          <mxGeometry x="790" y="540" width="130" height="40" as="geometry" />
        </mxCell>
        <mxCell id="7YA66HnuWneSzZkzsf_V-2" style="edgeStyle=orthogonalEdgeStyle;rounded=0;orthogonalLoop=1;jettySize=auto;html=1;exitX=1;exitY=0.5;exitDx=0;exitDy=0;fontSize=15;" parent="1" source="Ye2cRBay2JUj2pcL1aTp-23" target="Ye2cRBay2JUj2pcL1aTp-47" edge="1">
          <mxGeometry relative="1" as="geometry" />
        </mxCell>
        <mxCell id="Ye2cRBay2JUj2pcL1aTp-23" value="出院" style="rounded=0;whiteSpace=wrap;html=1;fontSize=15;" parent="1" vertex="1">
          <mxGeometry x="1370" y="470" width="130" height="40" as="geometry" />
        </mxCell>
        <mxCell id="Ye2cRBay2JUj2pcL1aTp-28" style="edgeStyle=orthogonalEdgeStyle;rounded=0;orthogonalLoop=1;jettySize=auto;html=1;exitX=1;exitY=0.5;exitDx=0;exitDy=0;fontSize=15;" parent="1" source="Ye2cRBay2JUj2pcL1aTp-25" target="Ye2cRBay2JUj2pcL1aTp-27" edge="1">
          <mxGeometry relative="1" as="geometry" />
        </mxCell>
        <mxCell id="Ye2cRBay2JUj2pcL1aTp-31" style="edgeStyle=orthogonalEdgeStyle;rounded=0;orthogonalLoop=1;jettySize=auto;html=1;exitX=0.5;exitY=0;exitDx=0;exitDy=0;entryX=0;entryY=0.5;entryDx=0;entryDy=0;fontSize=15;" parent="1" source="Ye2cRBay2JUj2pcL1aTp-25" target="Ye2cRBay2JUj2pcL1aTp-30" edge="1">
          <mxGeometry relative="1" as="geometry" />
        </mxCell>
        <mxCell id="Ye2cRBay2JUj2pcL1aTp-34" style="edgeStyle=orthogonalEdgeStyle;rounded=0;orthogonalLoop=1;jettySize=auto;html=1;exitX=0.5;exitY=0;exitDx=0;exitDy=0;entryX=0;entryY=0.5;entryDx=0;entryDy=0;fontSize=15;" parent="1" source="Ye2cRBay2JUj2pcL1aTp-25" target="Ye2cRBay2JUj2pcL1aTp-33" edge="1">
          <mxGeometry relative="1" as="geometry" />
        </mxCell>
        <mxCell id="Ye2cRBay2JUj2pcL1aTp-25" value="药房取药" style="rounded=0;whiteSpace=wrap;html=1;fontSize=15;" parent="1" vertex="1">
          <mxGeometry x="980" y="390" width="100" height="40" as="geometry" />
        </mxCell>
        <mxCell id="Ye2cRBay2JUj2pcL1aTp-29" style="edgeStyle=orthogonalEdgeStyle;rounded=0;orthogonalLoop=1;jettySize=auto;html=1;exitX=1;exitY=0.5;exitDx=0;exitDy=0;fontSize=15;" parent="1" source="Ye2cRBay2JUj2pcL1aTp-27" target="Ye2cRBay2JUj2pcL1aTp-23" edge="1">
          <mxGeometry relative="1" as="geometry" />
        </mxCell>
        <mxCell id="Ye2cRBay2JUj2pcL1aTp-27" value="遵循医嘱回家服药" style="rounded=0;whiteSpace=wrap;html=1;fontSize=15;" parent="1" vertex="1">
          <mxGeometry x="1134.63" y="390" width="130" height="40" as="geometry" />
        </mxCell>
        <mxCell id="Ye2cRBay2JUj2pcL1aTp-32" style="edgeStyle=orthogonalEdgeStyle;rounded=0;orthogonalLoop=1;jettySize=auto;html=1;exitX=1;exitY=0.5;exitDx=0;exitDy=0;fontSize=15;" parent="1" source="Ye2cRBay2JUj2pcL1aTp-30" target="Ye2cRBay2JUj2pcL1aTp-23" edge="1">
          <mxGeometry relative="1" as="geometry" />
        </mxCell>
        <mxCell id="Ye2cRBay2JUj2pcL1aTp-30" value="前往门诊注射、输液" style="rounded=0;whiteSpace=wrap;html=1;fontSize=15;" parent="1" vertex="1">
          <mxGeometry x="1110" y="320" width="154.63" height="40" as="geometry" />
        </mxCell>
        <mxCell id="Ye2cRBay2JUj2pcL1aTp-35" style="edgeStyle=orthogonalEdgeStyle;rounded=0;orthogonalLoop=1;jettySize=auto;html=1;exitX=1;exitY=0.5;exitDx=0;exitDy=0;fontSize=15;" parent="1" source="Ye2cRBay2JUj2pcL1aTp-33" target="Ye2cRBay2JUj2pcL1aTp-23" edge="1">
          <mxGeometry relative="1" as="geometry" />
        </mxCell>
        <mxCell id="Ye2cRBay2JUj2pcL1aTp-33" value="治疗室物理治疗" style="rounded=0;whiteSpace=wrap;html=1;fontSize=15;fillColor=#f8cecc;strokeColor=#b85450;" parent="1" vertex="1">
          <mxGeometry x="1134.63" y="260" width="130" height="40" as="geometry" />
        </mxCell>
        <mxCell id="Ye2cRBay2JUj2pcL1aTp-37" value="" style="html=1;shadow=0;dashed=0;align=center;verticalAlign=middle;shape=mxgraph.arrows2.arrow;dy=0.6;dx=40;notch=15;fontSize=15;" parent="1" vertex="1">
          <mxGeometry x="-800" y="-40" width="5210" height="40" as="geometry" />
        </mxCell>
        <mxCell id="Ye2cRBay2JUj2pcL1aTp-41" style="edgeStyle=orthogonalEdgeStyle;rounded=0;orthogonalLoop=1;jettySize=auto;html=1;exitX=1;exitY=0.5;exitDx=0;exitDy=0;entryX=0;entryY=0.5;entryDx=0;entryDy=0;fontSize=15;" parent="1" source="Ye2cRBay2JUj2pcL1aTp-38" target="Ye2cRBay2JUj2pcL1aTp-40" edge="1">
          <mxGeometry relative="1" as="geometry" />
        </mxCell>
        <mxCell id="Ye2cRBay2JUj2pcL1aTp-38" value="到住院处办理相关住院手续" style="rounded=0;whiteSpace=wrap;html=1;fontSize=15;" parent="1" vertex="1">
          <mxGeometry x="980" y="540" width="130" height="40" as="geometry" />
        </mxCell>
        <mxCell id="Ye2cRBay2JUj2pcL1aTp-42" style="edgeStyle=orthogonalEdgeStyle;rounded=0;orthogonalLoop=1;jettySize=auto;html=1;exitX=1;exitY=0.5;exitDx=0;exitDy=0;entryX=0.5;entryY=1;entryDx=0;entryDy=0;fontSize=15;" parent="1" source="Ye2cRBay2JUj2pcL1aTp-40" target="Ye2cRBay2JUj2pcL1aTp-23" edge="1">
          <mxGeometry relative="1" as="geometry" />
        </mxCell>
        <mxCell id="Ye2cRBay2JUj2pcL1aTp-40" value="手术或治疗结束办理出院手续" style="rounded=0;whiteSpace=wrap;html=1;fontSize=15;" parent="1" vertex="1">
          <mxGeometry x="1150" y="540" width="130" height="40" as="geometry" />
        </mxCell>
        <mxCell id="Ye2cRBay2JUj2pcL1aTp-45" style="edgeStyle=orthogonalEdgeStyle;rounded=0;orthogonalLoop=1;jettySize=auto;html=1;fontSize=15;" parent="1" target="Ye2cRBay2JUj2pcL1aTp-3" edge="1">
          <mxGeometry relative="1" as="geometry">
            <mxPoint x="583.1999999999998" y="-28.40000000000009" as="sourcePoint" />
          </mxGeometry>
        </mxCell>
        <mxCell id="Ye2cRBay2JUj2pcL1aTp-47" value="健康" style="shape=image;html=1;verticalAlign=top;verticalLabelPosition=bottom;labelBackgroundColor=#ffffff;imageAspect=0;aspect=fixed;image=https://cdn4.iconfinder.com/data/icons/32x32-free-design-icons/32/Apply.png;fontSize=15;" parent="1" vertex="1">
          <mxGeometry x="2875" y="-28.80000000000001" width="32" height="32" as="geometry" />
        </mxCell>
        <mxCell id="7YA66HnuWneSzZkzsf_V-5" style="edgeStyle=orthogonalEdgeStyle;rounded=0;orthogonalLoop=1;jettySize=auto;html=1;exitX=0.5;exitY=0;exitDx=0;exitDy=0;entryX=0.5;entryY=1;entryDx=0;entryDy=0;fontSize=15;fontColor=#FF0000;" parent="1" source="7YA66HnuWneSzZkzsf_V-3" target="7YA66HnuWneSzZkzsf_V-4" edge="1">
          <mxGeometry relative="1" as="geometry" />
        </mxCell>
        <mxCell id="7YA66HnuWneSzZkzsf_V-3" value="手术" style="shape=image;html=1;verticalAlign=top;verticalLabelPosition=bottom;labelBackgroundColor=#ffffff;imageAspect=0;aspect=fixed;image=https://cdn4.iconfinder.com/data/icons/food-and-equipment-outline/32/knife-128.png;fontSize=15;fontColor=#FF0000;" parent="1" vertex="1">
          <mxGeometry x="1150" y="-40" width="60" height="60" as="geometry" />
        </mxCell>
        <mxCell id="7YA66HnuWneSzZkzsf_V-25" style="edgeStyle=orthogonalEdgeStyle;rounded=0;orthogonalLoop=1;jettySize=auto;html=1;exitX=0.5;exitY=0;exitDx=0;exitDy=0;entryX=0.5;entryY=1;entryDx=0;entryDy=0;fontSize=15;fontColor=#FF0000;" parent="1" source="7YA66HnuWneSzZkzsf_V-4" target="7YA66HnuWneSzZkzsf_V-6" edge="1">
          <mxGeometry relative="1" as="geometry" />
        </mxCell>
        <mxCell id="7YA66HnuWneSzZkzsf_V-29" value="否" style="edgeStyle=orthogonalEdgeStyle;rounded=0;orthogonalLoop=1;jettySize=auto;html=1;exitX=0;exitY=0.5;exitDx=0;exitDy=0;fontSize=15;fontColor=#FF0000;" parent="1" source="7YA66HnuWneSzZkzsf_V-4" target="7YA66HnuWneSzZkzsf_V-28" edge="1">
          <mxGeometry relative="1" as="geometry" />
        </mxCell>
        <mxCell id="7YA66HnuWneSzZkzsf_V-4" value="&lt;font color=&quot;#000000&quot;&gt;是否择期手术&lt;/font&gt;" style="rhombus;whiteSpace=wrap;html=1;fontSize=15;fontColor=#FF0000;" parent="1" vertex="1">
          <mxGeometry x="1123.5" y="-120" width="113" height="50" as="geometry" />
        </mxCell>
        <mxCell id="7YA66HnuWneSzZkzsf_V-26" style="edgeStyle=orthogonalEdgeStyle;rounded=0;orthogonalLoop=1;jettySize=auto;html=1;exitX=0.5;exitY=0;exitDx=0;exitDy=0;fontSize=15;fontColor=#FF0000;" parent="1" source="7YA66HnuWneSzZkzsf_V-6" target="7YA66HnuWneSzZkzsf_V-7" edge="1">
          <mxGeometry relative="1" as="geometry" />
        </mxCell>
        <mxCell id="7YA66HnuWneSzZkzsf_V-6" value="手术评估" style="rounded=0;whiteSpace=wrap;html=1;fontSize=15;" parent="1" vertex="1">
          <mxGeometry x="1130.7" y="-180" width="100" height="30" as="geometry" />
        </mxCell>
        <mxCell id="7YA66HnuWneSzZkzsf_V-27" style="edgeStyle=orthogonalEdgeStyle;rounded=0;orthogonalLoop=1;jettySize=auto;html=1;exitX=0.5;exitY=0;exitDx=0;exitDy=0;fontSize=15;fontColor=#FF0000;" parent="1" source="7YA66HnuWneSzZkzsf_V-7" target="7YA66HnuWneSzZkzsf_V-8" edge="1">
          <mxGeometry relative="1" as="geometry" />
        </mxCell>
        <mxCell id="7YA66HnuWneSzZkzsf_V-7" value="术前教育、知情同意书、其他文件" style="rounded=0;whiteSpace=wrap;html=1;fontSize=15;" parent="1" vertex="1">
          <mxGeometry x="1102.12" y="-270" width="157.18" height="60" as="geometry" />
        </mxCell>
        <mxCell id="7YA66HnuWneSzZkzsf_V-31" style="edgeStyle=orthogonalEdgeStyle;rounded=0;orthogonalLoop=1;jettySize=auto;html=1;exitX=0.5;exitY=0;exitDx=0;exitDy=0;fontSize=15;fontColor=#FF0000;" parent="1" source="7YA66HnuWneSzZkzsf_V-8" target="7YA66HnuWneSzZkzsf_V-9" edge="1">
          <mxGeometry relative="1" as="geometry" />
        </mxCell>
        <mxCell id="7YA66HnuWneSzZkzsf_V-8" value="择期手术由副主任或主任医师审批，急诊手术由当天值班最高级别医师审批" style="rounded=0;whiteSpace=wrap;html=1;fontSize=15;" parent="1" vertex="1">
          <mxGeometry x="1076" y="-360" width="210" height="60" as="geometry" />
        </mxCell>
        <mxCell id="7YA66HnuWneSzZkzsf_V-32" style="edgeStyle=orthogonalEdgeStyle;rounded=0;orthogonalLoop=1;jettySize=auto;html=1;exitX=0.5;exitY=0;exitDx=0;exitDy=0;fontSize=15;fontColor=#FF0000;" parent="1" source="7YA66HnuWneSzZkzsf_V-9" target="7YA66HnuWneSzZkzsf_V-12" edge="1">
          <mxGeometry relative="1" as="geometry" />
        </mxCell>
        <mxCell id="7YA66HnuWneSzZkzsf_V-33" style="edgeStyle=orthogonalEdgeStyle;rounded=0;orthogonalLoop=1;jettySize=auto;html=1;exitX=0.5;exitY=0;exitDx=0;exitDy=0;fontSize=15;fontColor=#FF0000;" parent="1" source="7YA66HnuWneSzZkzsf_V-9" target="7YA66HnuWneSzZkzsf_V-11" edge="1">
          <mxGeometry relative="1" as="geometry" />
        </mxCell>
        <mxCell id="7YA66HnuWneSzZkzsf_V-34" style="edgeStyle=orthogonalEdgeStyle;rounded=0;orthogonalLoop=1;jettySize=auto;html=1;exitX=0.5;exitY=0;exitDx=0;exitDy=0;fontSize=15;fontColor=#FF0000;" parent="1" source="7YA66HnuWneSzZkzsf_V-9" target="7YA66HnuWneSzZkzsf_V-13" edge="1">
          <mxGeometry relative="1" as="geometry" />
        </mxCell>
        <mxCell id="7YA66HnuWneSzZkzsf_V-9" value="HIS手术通知单" style="rounded=0;whiteSpace=wrap;html=1;fontSize=15;" parent="1" vertex="1">
          <mxGeometry x="1121.42" y="-430" width="118.59" height="30" as="geometry" />
        </mxCell>
        <mxCell id="7YA66HnuWneSzZkzsf_V-35" style="edgeStyle=orthogonalEdgeStyle;rounded=0;orthogonalLoop=1;jettySize=auto;html=1;exitX=0.5;exitY=0;exitDx=0;exitDy=0;fontSize=15;fontColor=#FF0000;" parent="1" source="7YA66HnuWneSzZkzsf_V-11" target="7YA66HnuWneSzZkzsf_V-16" edge="1">
          <mxGeometry relative="1" as="geometry" />
        </mxCell>
        <mxCell id="7YA66HnuWneSzZkzsf_V-11" value="麻醉评估" style="rounded=0;whiteSpace=wrap;html=1;fontSize=15;" parent="1" vertex="1">
          <mxGeometry x="950" y="-540" width="100" height="30" as="geometry" />
        </mxCell>
        <mxCell id="7YA66HnuWneSzZkzsf_V-37" style="edgeStyle=orthogonalEdgeStyle;rounded=0;orthogonalLoop=1;jettySize=auto;html=1;exitX=0.5;exitY=0;exitDx=0;exitDy=0;fontSize=15;fontColor=#FF0000;" parent="1" source="7YA66HnuWneSzZkzsf_V-12" target="7YA66HnuWneSzZkzsf_V-15" edge="1">
          <mxGeometry relative="1" as="geometry" />
        </mxCell>
        <mxCell id="7YA66HnuWneSzZkzsf_V-12" value="术前医嘱" style="rounded=0;whiteSpace=wrap;html=1;fontSize=15;" parent="1" vertex="1">
          <mxGeometry x="1130.7" y="-540" width="98.59" height="30" as="geometry" />
        </mxCell>
        <mxCell id="7YA66HnuWneSzZkzsf_V-36" style="edgeStyle=orthogonalEdgeStyle;rounded=0;orthogonalLoop=1;jettySize=auto;html=1;exitX=0.5;exitY=0;exitDx=0;exitDy=0;fontSize=15;fontColor=#FF0000;" parent="1" source="7YA66HnuWneSzZkzsf_V-13" target="7YA66HnuWneSzZkzsf_V-14" edge="1">
          <mxGeometry relative="1" as="geometry" />
        </mxCell>
        <mxCell id="7YA66HnuWneSzZkzsf_V-13" value="用血知情同意签字备用申请单" style="rounded=0;whiteSpace=wrap;html=1;fontSize=15;" parent="1" vertex="1">
          <mxGeometry x="1252.31" y="-540" width="210" height="30" as="geometry" />
        </mxCell>
        <mxCell id="7YA66HnuWneSzZkzsf_V-14" value="办理输血手续" style="rounded=0;whiteSpace=wrap;html=1;fontSize=15;" parent="1" vertex="1">
          <mxGeometry x="1308.01" y="-600" width="98.59" height="30" as="geometry" />
        </mxCell>
        <mxCell id="7YA66HnuWneSzZkzsf_V-44" style="edgeStyle=orthogonalEdgeStyle;rounded=0;orthogonalLoop=1;jettySize=auto;html=1;exitX=0.5;exitY=0;exitDx=0;exitDy=0;fontSize=15;fontColor=#FF0000;" parent="1" source="7YA66HnuWneSzZkzsf_V-15" target="7YA66HnuWneSzZkzsf_V-17" edge="1">
          <mxGeometry relative="1" as="geometry" />
        </mxCell>
        <mxCell id="7YA66HnuWneSzZkzsf_V-15" value="术前准备、腕带核对手术部位标记麻醉前用药" style="rounded=0;whiteSpace=wrap;html=1;fontSize=15;" parent="1" vertex="1">
          <mxGeometry x="1099.3" y="-650" width="160" height="70" as="geometry" />
        </mxCell>
        <mxCell id="7YA66HnuWneSzZkzsf_V-16" value="麻醉知情同意书" style="rounded=0;whiteSpace=wrap;html=1;fontSize=15;" parent="1" vertex="1">
          <mxGeometry x="940" y="-620" width="120" height="30" as="geometry" />
        </mxCell>
        <mxCell id="7YA66HnuWneSzZkzsf_V-45" style="edgeStyle=orthogonalEdgeStyle;rounded=0;orthogonalLoop=1;jettySize=auto;html=1;exitX=0.5;exitY=0;exitDx=0;exitDy=0;fontSize=15;fontColor=#FF0000;" parent="1" source="7YA66HnuWneSzZkzsf_V-17" target="7YA66HnuWneSzZkzsf_V-19" edge="1">
          <mxGeometry relative="1" as="geometry" />
        </mxCell>
        <mxCell id="7YA66HnuWneSzZkzsf_V-46" style="edgeStyle=orthogonalEdgeStyle;rounded=0;orthogonalLoop=1;jettySize=auto;html=1;exitX=1;exitY=0.5;exitDx=0;exitDy=0;fontSize=15;fontColor=#FF0000;" parent="1" source="7YA66HnuWneSzZkzsf_V-17" target="7YA66HnuWneSzZkzsf_V-18" edge="1">
          <mxGeometry relative="1" as="geometry" />
        </mxCell>
        <mxCell id="7YA66HnuWneSzZkzsf_V-17" value="进入手术室" style="rounded=0;whiteSpace=wrap;html=1;fontSize=15;" parent="1" vertex="1">
          <mxGeometry x="1130.01" y="-730" width="98.59" height="30" as="geometry" />
        </mxCell>
        <mxCell id="7YA66HnuWneSzZkzsf_V-18" value="核对病人信息交接" style="rounded=0;whiteSpace=wrap;html=1;fontSize=15;" parent="1" vertex="1">
          <mxGeometry x="1272.79" y="-730" width="143.5" height="30" as="geometry" />
        </mxCell>
        <mxCell id="7YA66HnuWneSzZkzsf_V-43" style="edgeStyle=orthogonalEdgeStyle;rounded=0;orthogonalLoop=1;jettySize=auto;html=1;exitX=0.5;exitY=0;exitDx=0;exitDy=0;fontSize=15;fontColor=#FF0000;" parent="1" source="7YA66HnuWneSzZkzsf_V-19" target="7YA66HnuWneSzZkzsf_V-20" edge="1">
          <mxGeometry relative="1" as="geometry" />
        </mxCell>
        <mxCell id="7YA66HnuWneSzZkzsf_V-19" value="麻醉前再评估" style="rounded=0;whiteSpace=wrap;html=1;fontSize=15;" parent="1" vertex="1">
          <mxGeometry x="1129.6" y="-800" width="100" height="30" as="geometry" />
        </mxCell>
        <mxCell id="7YA66HnuWneSzZkzsf_V-42" style="edgeStyle=orthogonalEdgeStyle;rounded=0;orthogonalLoop=1;jettySize=auto;html=1;exitX=0.5;exitY=0;exitDx=0;exitDy=0;fontSize=15;fontColor=#FF0000;" parent="1" source="7YA66HnuWneSzZkzsf_V-20" target="7YA66HnuWneSzZkzsf_V-21" edge="1">
          <mxGeometry relative="1" as="geometry" />
        </mxCell>
        <mxCell id="7YA66HnuWneSzZkzsf_V-20" value="手术开始" style="rounded=0;whiteSpace=wrap;html=1;fontSize=15;" parent="1" vertex="1">
          <mxGeometry x="1129.6" y="-870" width="100" height="30" as="geometry" />
        </mxCell>
        <mxCell id="7YA66HnuWneSzZkzsf_V-40" style="edgeStyle=orthogonalEdgeStyle;rounded=0;orthogonalLoop=1;jettySize=auto;html=1;exitX=0.5;exitY=0;exitDx=0;exitDy=0;fontSize=15;fontColor=#FF0000;" parent="1" source="7YA66HnuWneSzZkzsf_V-21" target="7YA66HnuWneSzZkzsf_V-22" edge="1">
          <mxGeometry relative="1" as="geometry" />
        </mxCell>
        <mxCell id="7YA66HnuWneSzZkzsf_V-51" style="edgeStyle=orthogonalEdgeStyle;rounded=0;orthogonalLoop=1;jettySize=auto;html=1;exitX=0;exitY=0.5;exitDx=0;exitDy=0;fontSize=15;fontColor=#FF0000;" parent="1" source="7YA66HnuWneSzZkzsf_V-21" target="7YA66HnuWneSzZkzsf_V-24" edge="1">
          <mxGeometry relative="1" as="geometry" />
        </mxCell>
        <mxCell id="7YA66HnuWneSzZkzsf_V-21" value="手术结束、麻醉结束" style="rounded=0;whiteSpace=wrap;html=1;fontSize=15;" parent="1" vertex="1">
          <mxGeometry x="1130.01" y="-940" width="100" height="40" as="geometry" />
        </mxCell>
        <mxCell id="7YA66HnuWneSzZkzsf_V-38" style="edgeStyle=orthogonalEdgeStyle;rounded=0;orthogonalLoop=1;jettySize=auto;html=1;exitX=0.5;exitY=0;exitDx=0;exitDy=0;fontSize=15;fontColor=#FF0000;" parent="1" source="7YA66HnuWneSzZkzsf_V-22" target="7YA66HnuWneSzZkzsf_V-23" edge="1">
          <mxGeometry relative="1" as="geometry" />
        </mxCell>
        <mxCell id="7YA66HnuWneSzZkzsf_V-22" value="入ICU" style="rounded=0;whiteSpace=wrap;html=1;fontSize=15;" parent="1" vertex="1">
          <mxGeometry x="1130.01" y="-1000" width="100" height="30" as="geometry" />
        </mxCell>
        <mxCell id="7YA66HnuWneSzZkzsf_V-23" value="手术组、麻醉师、护士分别与ICU医护交接" style="rounded=0;whiteSpace=wrap;html=1;fontSize=15;" parent="1" vertex="1">
          <mxGeometry x="1105.01" y="-1074" width="150" height="40" as="geometry" />
        </mxCell>
        <mxCell id="7YA66HnuWneSzZkzsf_V-24" value="手术组医生与病人家属交代术中情况，术后注意事项" style="rounded=0;whiteSpace=wrap;html=1;fontSize=15;" parent="1" vertex="1">
          <mxGeometry x="950" y="-955" width="150" height="70" as="geometry" />
        </mxCell>
        <mxCell id="7YA66HnuWneSzZkzsf_V-30" style="edgeStyle=orthogonalEdgeStyle;rounded=0;orthogonalLoop=1;jettySize=auto;html=1;exitX=0.5;exitY=0;exitDx=0;exitDy=0;entryX=0;entryY=0.5;entryDx=0;entryDy=0;fontSize=15;fontColor=#FF0000;" parent="1" source="7YA66HnuWneSzZkzsf_V-28" target="7YA66HnuWneSzZkzsf_V-8" edge="1">
          <mxGeometry relative="1" as="geometry" />
        </mxCell>
        <mxCell id="7YA66HnuWneSzZkzsf_V-28" value="紧急手术" style="rounded=0;whiteSpace=wrap;html=1;fontSize=15;" parent="1" vertex="1">
          <mxGeometry x="930" y="-110" width="100" height="30" as="geometry" />
        </mxCell>
        <mxCell id="7YA66HnuWneSzZkzsf_V-74" style="edgeStyle=orthogonalEdgeStyle;rounded=0;orthogonalLoop=1;jettySize=auto;html=1;fontSize=15;fontColor=#FF0000;" parent="1" source="7YA66HnuWneSzZkzsf_V-53" target="7YA66HnuWneSzZkzsf_V-58" edge="1">
          <mxGeometry relative="1" as="geometry" />
        </mxCell>
        <mxCell id="7YA66HnuWneSzZkzsf_V-53" value="领取生育服务证" style="rounded=0;whiteSpace=wrap;html=1;fontSize=15;" parent="1" vertex="1">
          <mxGeometry x="-425" y="70.00000000000003" width="160" height="40" as="geometry" />
        </mxCell>
        <mxCell id="7YA66HnuWneSzZkzsf_V-73" style="edgeStyle=orthogonalEdgeStyle;rounded=0;orthogonalLoop=1;jettySize=auto;html=1;exitX=0.5;exitY=1;exitDx=0;exitDy=0;exitPerimeter=0;fontSize=15;fontColor=#FF0000;" parent="1" source="7YA66HnuWneSzZkzsf_V-54" target="7YA66HnuWneSzZkzsf_V-53" edge="1">
          <mxGeometry relative="1" as="geometry" />
        </mxCell>
        <mxCell id="7YA66HnuWneSzZkzsf_V-54" value="生育" style="shape=mxgraph.signs.people.baby_2;html=1;pointerEvents=1;fillColor=#000000;strokeColor=none;verticalLabelPosition=bottom;verticalAlign=top;align=center;fontSize=15;fontColor=#FF0000;" parent="1" vertex="1">
          <mxGeometry x="-380" y="-57.9" width="70" height="89" as="geometry" />
        </mxCell>
        <mxCell id="7YA66HnuWneSzZkzsf_V-72" style="edgeStyle=orthogonalEdgeStyle;rounded=0;orthogonalLoop=1;jettySize=auto;html=1;entryX=1;entryY=0.5;entryDx=0;entryDy=0;fontSize=15;fontColor=#FF0000;" parent="1" source="7YA66HnuWneSzZkzsf_V-56" target="7YA66HnuWneSzZkzsf_V-53" edge="1">
          <mxGeometry relative="1" as="geometry" />
        </mxCell>
        <mxCell id="7YA66HnuWneSzZkzsf_V-56" value="提出申请，审核后获得" style="rounded=0;whiteSpace=wrap;html=1;fontSize=15;" parent="1" vertex="1">
          <mxGeometry x="-210" y="70.00000000000003" width="160" height="40" as="geometry" />
        </mxCell>
        <mxCell id="7YA66HnuWneSzZkzsf_V-75" style="edgeStyle=orthogonalEdgeStyle;rounded=0;orthogonalLoop=1;jettySize=auto;html=1;exitX=0.5;exitY=1;exitDx=0;exitDy=0;fontSize=15;fontColor=#FF0000;" parent="1" source="7YA66HnuWneSzZkzsf_V-58" target="7YA66HnuWneSzZkzsf_V-60" edge="1">
          <mxGeometry relative="1" as="geometry" />
        </mxCell>
        <mxCell id="7YA66HnuWneSzZkzsf_V-58" value="国家免费孕前优生健康检查" style="rounded=0;whiteSpace=wrap;html=1;fontSize=15;" parent="1" vertex="1">
          <mxGeometry x="-440" y="140" width="190" height="40" as="geometry" />
        </mxCell>
        <mxCell id="7YA66HnuWneSzZkzsf_V-76" value="不宜怀孕" style="edgeStyle=orthogonalEdgeStyle;rounded=0;orthogonalLoop=1;jettySize=auto;html=1;exitX=1;exitY=0.5;exitDx=0;exitDy=0;entryX=0;entryY=0.5;entryDx=0;entryDy=0;fontSize=15;fontColor=#FF0000;" parent="1" source="7YA66HnuWneSzZkzsf_V-60" target="7YA66HnuWneSzZkzsf_V-67" edge="1">
          <mxGeometry relative="1" as="geometry" />
        </mxCell>
        <mxCell id="7YA66HnuWneSzZkzsf_V-78" style="edgeStyle=orthogonalEdgeStyle;rounded=0;orthogonalLoop=1;jettySize=auto;html=1;exitX=0.5;exitY=1;exitDx=0;exitDy=0;fontSize=15;fontColor=#FF0000;" parent="1" source="7YA66HnuWneSzZkzsf_V-60" target="7YA66HnuWneSzZkzsf_V-77" edge="1">
          <mxGeometry relative="1" as="geometry" />
        </mxCell>
        <mxCell id="7YA66HnuWneSzZkzsf_V-80" style="edgeStyle=orthogonalEdgeStyle;rounded=0;orthogonalLoop=1;jettySize=auto;html=1;exitX=0.5;exitY=1;exitDx=0;exitDy=0;entryX=0.5;entryY=0;entryDx=0;entryDy=0;fontSize=15;fontColor=#FF0000;" parent="1" source="7YA66HnuWneSzZkzsf_V-60" target="7YA66HnuWneSzZkzsf_V-79" edge="1">
          <mxGeometry relative="1" as="geometry" />
        </mxCell>
        <mxCell id="7YA66HnuWneSzZkzsf_V-60" value="孕前咨询" style="rounded=0;whiteSpace=wrap;html=1;fontSize=15;" parent="1" vertex="1">
          <mxGeometry x="-405" y="220" width="120" height="40" as="geometry" />
        </mxCell>
        <mxCell id="7YA66HnuWneSzZkzsf_V-67" value="做好避孕" style="rounded=0;whiteSpace=wrap;html=1;fontSize=15;" parent="1" vertex="1">
          <mxGeometry x="-210" y="220" width="90" height="40" as="geometry" />
        </mxCell>
        <mxCell id="7YA66HnuWneSzZkzsf_V-85" style="edgeStyle=orthogonalEdgeStyle;rounded=0;orthogonalLoop=1;jettySize=auto;html=1;exitX=0.5;exitY=1;exitDx=0;exitDy=0;entryX=0.5;entryY=0;entryDx=0;entryDy=0;fontSize=15;fontColor=#FF0000;" parent="1" source="7YA66HnuWneSzZkzsf_V-77" target="7YA66HnuWneSzZkzsf_V-81" edge="1">
          <mxGeometry relative="1" as="geometry" />
        </mxCell>
        <mxCell id="7YA66HnuWneSzZkzsf_V-77" value="自然怀孕" style="rounded=0;whiteSpace=wrap;html=1;fontSize=15;" parent="1" vertex="1">
          <mxGeometry x="-320" y="300" width="120" height="40" as="geometry" />
        </mxCell>
        <mxCell id="7YA66HnuWneSzZkzsf_V-79" value="不孕治疗" style="rounded=0;whiteSpace=wrap;html=1;fontSize=15;fillColor=#f8cecc;strokeColor=#b85450;" parent="1" vertex="1">
          <mxGeometry x="-480" y="300" width="120" height="40" as="geometry" />
        </mxCell>
        <mxCell id="7YA66HnuWneSzZkzsf_V-84" style="edgeStyle=orthogonalEdgeStyle;rounded=0;orthogonalLoop=1;jettySize=auto;html=1;exitX=1;exitY=0.5;exitDx=0;exitDy=0;fontSize=15;fontColor=#FF0000;" parent="1" source="7YA66HnuWneSzZkzsf_V-81" target="7YA66HnuWneSzZkzsf_V-83" edge="1">
          <mxGeometry relative="1" as="geometry" />
        </mxCell>
        <mxCell id="7YA66HnuWneSzZkzsf_V-87" style="edgeStyle=orthogonalEdgeStyle;rounded=0;orthogonalLoop=1;jettySize=auto;html=1;exitX=0.25;exitY=1;exitDx=0;exitDy=0;entryX=0.25;entryY=0;entryDx=0;entryDy=0;fontSize=15;fontColor=#FF0000;" parent="1" source="7YA66HnuWneSzZkzsf_V-81" target="7YA66HnuWneSzZkzsf_V-82" edge="1">
          <mxGeometry relative="1" as="geometry" />
        </mxCell>
        <mxCell id="7YA66HnuWneSzZkzsf_V-81" value="定期产前检查" style="rounded=0;whiteSpace=wrap;html=1;fontSize=15;" parent="1" vertex="1">
          <mxGeometry x="-320" y="377" width="120" height="40" as="geometry" />
        </mxCell>
        <mxCell id="7YA66HnuWneSzZkzsf_V-94" style="edgeStyle=orthogonalEdgeStyle;rounded=0;orthogonalLoop=1;jettySize=auto;html=1;exitX=0.25;exitY=1;exitDx=0;exitDy=0;fontSize=15;fontColor=#FF0000;" parent="1" source="7YA66HnuWneSzZkzsf_V-82" target="7YA66HnuWneSzZkzsf_V-91" edge="1">
          <mxGeometry relative="1" as="geometry" />
        </mxCell>
        <mxCell id="7YA66HnuWneSzZkzsf_V-95" style="edgeStyle=orthogonalEdgeStyle;rounded=0;orthogonalLoop=1;jettySize=auto;html=1;exitX=0.5;exitY=1;exitDx=0;exitDy=0;fontSize=15;fontColor=#FF0000;" parent="1" source="7YA66HnuWneSzZkzsf_V-82" target="7YA66HnuWneSzZkzsf_V-92" edge="1">
          <mxGeometry relative="1" as="geometry" />
        </mxCell>
        <mxCell id="7YA66HnuWneSzZkzsf_V-96" style="edgeStyle=orthogonalEdgeStyle;rounded=0;orthogonalLoop=1;jettySize=auto;html=1;exitX=0.75;exitY=1;exitDx=0;exitDy=0;fontSize=15;fontColor=#FF0000;" parent="1" source="7YA66HnuWneSzZkzsf_V-82" target="7YA66HnuWneSzZkzsf_V-93" edge="1">
          <mxGeometry relative="1" as="geometry" />
        </mxCell>
        <mxCell id="7YA66HnuWneSzZkzsf_V-82" value="选择产检及分娩医院" style="rounded=0;whiteSpace=wrap;html=1;fontSize=15;" parent="1" vertex="1">
          <mxGeometry x="-380" y="530" width="360" height="40" as="geometry" />
        </mxCell>
        <mxCell id="7YA66HnuWneSzZkzsf_V-88" value="&amp;gt;35岁" style="edgeStyle=orthogonalEdgeStyle;rounded=0;orthogonalLoop=1;jettySize=auto;html=1;exitX=0.75;exitY=1;exitDx=0;exitDy=0;fontSize=15;fontColor=#FF0000;" parent="1" source="7YA66HnuWneSzZkzsf_V-83" target="7YA66HnuWneSzZkzsf_V-86" edge="1">
          <mxGeometry relative="1" as="geometry" />
        </mxCell>
        <mxCell id="7YA66HnuWneSzZkzsf_V-90" style="edgeStyle=orthogonalEdgeStyle;rounded=0;orthogonalLoop=1;jettySize=auto;html=1;exitX=0.25;exitY=1;exitDx=0;exitDy=0;fontSize=15;fontColor=#FF0000;" parent="1" source="7YA66HnuWneSzZkzsf_V-83" target="7YA66HnuWneSzZkzsf_V-82" edge="1">
          <mxGeometry relative="1" as="geometry">
            <Array as="points">
              <mxPoint x="-170" y="417" />
              <mxPoint x="-170" y="474" />
              <mxPoint x="-200" y="474" />
            </Array>
          </mxGeometry>
        </mxCell>
        <mxCell id="7YA66HnuWneSzZkzsf_V-83" value="产前筛查" style="rounded=0;whiteSpace=wrap;html=1;fontSize=15;" parent="1" vertex="1">
          <mxGeometry x="-180" y="377" width="90" height="40" as="geometry" />
        </mxCell>
        <mxCell id="7YA66HnuWneSzZkzsf_V-89" style="edgeStyle=orthogonalEdgeStyle;rounded=0;orthogonalLoop=1;jettySize=auto;html=1;exitX=0.5;exitY=1;exitDx=0;exitDy=0;entryX=0.75;entryY=0;entryDx=0;entryDy=0;fontSize=15;fontColor=#FF0000;" parent="1" source="7YA66HnuWneSzZkzsf_V-86" target="7YA66HnuWneSzZkzsf_V-82" edge="1">
          <mxGeometry relative="1" as="geometry" />
        </mxCell>
        <mxCell id="7YA66HnuWneSzZkzsf_V-104" value="异常" style="edgeStyle=orthogonalEdgeStyle;rounded=0;orthogonalLoop=1;jettySize=auto;html=1;exitX=1;exitY=0.5;exitDx=0;exitDy=0;fontSize=15;fontColor=#FF0000;" parent="1" source="7YA66HnuWneSzZkzsf_V-86" target="7YA66HnuWneSzZkzsf_V-103" edge="1">
          <mxGeometry relative="1" as="geometry" />
        </mxCell>
        <mxCell id="7YA66HnuWneSzZkzsf_V-86" value="产前诊断" style="rounded=0;whiteSpace=wrap;html=1;fontSize=15;" parent="1" vertex="1">
          <mxGeometry x="-150" y="460" width="80" height="40" as="geometry" />
        </mxCell>
        <mxCell id="7YA66HnuWneSzZkzsf_V-97" style="edgeStyle=orthogonalEdgeStyle;rounded=0;orthogonalLoop=1;jettySize=auto;html=1;exitX=1;exitY=0.5;exitDx=0;exitDy=0;entryX=0;entryY=0.5;entryDx=0;entryDy=0;fontSize=15;fontColor=#FF0000;" parent="1" source="7YA66HnuWneSzZkzsf_V-91" target="7YA66HnuWneSzZkzsf_V-92" edge="1">
          <mxGeometry relative="1" as="geometry" />
        </mxCell>
        <mxCell id="7YA66HnuWneSzZkzsf_V-102" style="edgeStyle=orthogonalEdgeStyle;rounded=0;orthogonalLoop=1;jettySize=auto;html=1;exitX=0.5;exitY=1;exitDx=0;exitDy=0;fontSize=15;fontColor=#FF0000;" parent="1" source="7YA66HnuWneSzZkzsf_V-91" edge="1">
          <mxGeometry relative="1" as="geometry">
            <mxPoint x="-200" y="725.5" as="targetPoint" />
          </mxGeometry>
        </mxCell>
        <mxCell id="7YA66HnuWneSzZkzsf_V-91" value="1、2级医院" style="rounded=0;whiteSpace=wrap;html=1;fontSize=15;" parent="1" vertex="1">
          <mxGeometry x="-413" y="615.5" width="100" height="40" as="geometry" />
        </mxCell>
        <mxCell id="7YA66HnuWneSzZkzsf_V-98" value="高危" style="edgeStyle=orthogonalEdgeStyle;rounded=0;orthogonalLoop=1;jettySize=auto;html=1;exitX=1;exitY=0.5;exitDx=0;exitDy=0;fontSize=15;fontColor=#FF0000;" parent="1" source="7YA66HnuWneSzZkzsf_V-92" target="7YA66HnuWneSzZkzsf_V-93" edge="1">
          <mxGeometry relative="1" as="geometry" />
        </mxCell>
        <mxCell id="7YA66HnuWneSzZkzsf_V-101" style="edgeStyle=orthogonalEdgeStyle;rounded=0;orthogonalLoop=1;jettySize=auto;html=1;exitX=0.5;exitY=1;exitDx=0;exitDy=0;fontSize=15;fontColor=#FF0000;" parent="1" source="7YA66HnuWneSzZkzsf_V-92" target="7YA66HnuWneSzZkzsf_V-99" edge="1">
          <mxGeometry relative="1" as="geometry" />
        </mxCell>
        <mxCell id="7YA66HnuWneSzZkzsf_V-92" value="2、3级医院" style="rounded=0;whiteSpace=wrap;html=1;fontSize=15;" parent="1" vertex="1">
          <mxGeometry x="-245" y="615.5" width="90" height="40" as="geometry" />
        </mxCell>
        <mxCell id="7YA66HnuWneSzZkzsf_V-100" style="edgeStyle=orthogonalEdgeStyle;rounded=0;orthogonalLoop=1;jettySize=auto;html=1;exitX=0.5;exitY=1;exitDx=0;exitDy=0;fontSize=15;fontColor=#FF0000;" parent="1" source="7YA66HnuWneSzZkzsf_V-93" target="7YA66HnuWneSzZkzsf_V-99" edge="1">
          <mxGeometry relative="1" as="geometry" />
        </mxCell>
        <mxCell id="7YA66HnuWneSzZkzsf_V-93" value="3级综合医院" style="rounded=0;whiteSpace=wrap;html=1;fontSize=15;" parent="1" vertex="1">
          <mxGeometry x="-90" y="615.5" width="90" height="40" as="geometry" />
        </mxCell>
        <mxCell id="7YA66HnuWneSzZkzsf_V-99" value="产后哺乳及避孕" style="rounded=0;whiteSpace=wrap;html=1;fontSize=15;" parent="1" vertex="1">
          <mxGeometry x="-260" y="725.5" width="120" height="40" as="geometry" />
        </mxCell>
        <mxCell id="7YA66HnuWneSzZkzsf_V-103" value="终止妊娠" style="rounded=0;whiteSpace=wrap;html=1;fontSize=15;" parent="1" vertex="1">
          <mxGeometry x="-20" y="460" width="80" height="40" as="geometry" />
        </mxCell>
        <mxCell id="7YA66HnuWneSzZkzsf_V-105" value="" style="shape=mxgraph.signs.healthcare.care_staff_area;html=1;pointerEvents=1;fillColor=#000000;strokeColor=none;verticalLabelPosition=bottom;verticalAlign=top;align=center;fontSize=15;fontColor=#FF0000;" parent="1" vertex="1">
          <mxGeometry x="490" y="-80" width="97" height="98" as="geometry" />
        </mxCell>
        <mxCell id="7YA66HnuWneSzZkzsf_V-106" value="入学" style="shape=image;html=1;verticalAlign=top;verticalLabelPosition=bottom;labelBackgroundColor=#ffffff;imageAspect=0;aspect=fixed;image=https://cdn0.iconfinder.com/data/icons/streamline-emoji-1/48/130-man-student-2-128.png;fontSize=15;fontColor=#FF0000;" parent="1" vertex="1">
          <mxGeometry x="90" y="-55" width="78" height="78" as="geometry" />
        </mxCell>
        <mxCell id="7YA66HnuWneSzZkzsf_V-107" value="死亡" style="shape=image;html=1;verticalAlign=top;verticalLabelPosition=bottom;labelBackgroundColor=#ffffff;imageAspect=0;aspect=fixed;image=https://cdn3.iconfinder.com/data/icons/materia-halloween-free/24/039_028_death_reaper_halloween_grim-128.png;fontSize=15;fontColor=#FF0000;" parent="1" vertex="1">
          <mxGeometry x="4170" y="-50" width="68" height="68" as="geometry" />
        </mxCell>
        <mxCell id="leD_Ixq3dRcQ08DTcReP-3" style="edgeStyle=orthogonalEdgeStyle;rounded=0;orthogonalLoop=1;jettySize=auto;html=1;" edge="1" parent="1" source="4sCuwNs_L_uHyCFaaR2g-1" target="leD_Ixq3dRcQ08DTcReP-2">
          <mxGeometry relative="1" as="geometry" />
        </mxCell>
        <mxCell id="4sCuwNs_L_uHyCFaaR2g-1" value="民政结婚" style="shape=image;html=1;verticalAlign=top;verticalLabelPosition=bottom;labelBackgroundColor=#ffffff;imageAspect=0;aspect=fixed;image=https://cdn0.iconfinder.com/data/icons/lovely-valentine-s-day/64/Cake-wedding-gift-present-valentines_ady-marry-128.png" parent="1" vertex="1">
          <mxGeometry x="-740" y="-67" width="87" height="87" as="geometry" />
        </mxCell>
        <mxCell id="leD_Ixq3dRcQ08DTcReP-5" style="edgeStyle=orthogonalEdgeStyle;rounded=0;orthogonalLoop=1;jettySize=auto;html=1;exitX=0.5;exitY=0;exitDx=0;exitDy=0;" edge="1" parent="1" source="leD_Ixq3dRcQ08DTcReP-2" target="leD_Ixq3dRcQ08DTcReP-4">
          <mxGeometry relative="1" as="geometry" />
        </mxCell>
        <mxCell id="leD_Ixq3dRcQ08DTcReP-2" value="民政局婚管所领取体格检查表" style="rounded=0;whiteSpace=wrap;html=1;" vertex="1" parent="1">
          <mxGeometry x="-776.5" y="-131.96" width="160" height="30" as="geometry" />
        </mxCell>
        <mxCell id="leD_Ixq3dRcQ08DTcReP-10" style="edgeStyle=orthogonalEdgeStyle;rounded=0;orthogonalLoop=1;jettySize=auto;html=1;exitX=0.5;exitY=0;exitDx=0;exitDy=0;" edge="1" parent="1" source="leD_Ixq3dRcQ08DTcReP-4" target="leD_Ixq3dRcQ08DTcReP-8">
          <mxGeometry relative="1" as="geometry" />
        </mxCell>
        <mxCell id="leD_Ixq3dRcQ08DTcReP-4" value="婚前检查室登记" style="rounded=0;whiteSpace=wrap;html=1;" vertex="1" parent="1">
          <mxGeometry x="-776.5" y="-180" width="160" height="30" as="geometry" />
        </mxCell>
        <mxCell id="leD_Ixq3dRcQ08DTcReP-18" style="edgeStyle=orthogonalEdgeStyle;rounded=0;orthogonalLoop=1;jettySize=auto;html=1;exitX=0.5;exitY=0;exitDx=0;exitDy=0;" edge="1" parent="1" source="leD_Ixq3dRcQ08DTcReP-6" target="leD_Ixq3dRcQ08DTcReP-17">
          <mxGeometry relative="1" as="geometry" />
        </mxCell>
        <mxCell id="leD_Ixq3dRcQ08DTcReP-6" value="三大常规及肝功、留血样进行优生检查" style="rounded=0;whiteSpace=wrap;html=1;" vertex="1" parent="1">
          <mxGeometry x="-790" y="-450" width="210" height="30" as="geometry" />
        </mxCell>
        <mxCell id="leD_Ixq3dRcQ08DTcReP-15" style="edgeStyle=orthogonalEdgeStyle;rounded=0;orthogonalLoop=1;jettySize=auto;html=1;exitX=0.5;exitY=0;exitDx=0;exitDy=0;" edge="1" parent="1" source="leD_Ixq3dRcQ08DTcReP-7" target="leD_Ixq3dRcQ08DTcReP-6">
          <mxGeometry relative="1" as="geometry" />
        </mxCell>
        <mxCell id="leD_Ixq3dRcQ08DTcReP-7" value="男性科检查" style="rounded=0;whiteSpace=wrap;html=1;" vertex="1" parent="1">
          <mxGeometry x="-813" y="-380" width="103" height="30" as="geometry" />
        </mxCell>
        <mxCell id="leD_Ixq3dRcQ08DTcReP-11" style="edgeStyle=orthogonalEdgeStyle;rounded=0;orthogonalLoop=1;jettySize=auto;html=1;exitX=0.5;exitY=0;exitDx=0;exitDy=0;entryX=0.5;entryY=1;entryDx=0;entryDy=0;" edge="1" parent="1" source="leD_Ixq3dRcQ08DTcReP-8" target="leD_Ixq3dRcQ08DTcReP-9">
          <mxGeometry relative="1" as="geometry" />
        </mxCell>
        <mxCell id="leD_Ixq3dRcQ08DTcReP-8" value="1：一般检查&lt;br&gt;2：既往病史及遗传史" style="rounded=0;whiteSpace=wrap;html=1;" vertex="1" parent="1">
          <mxGeometry x="-776.5" y="-240" width="160" height="30" as="geometry" />
        </mxCell>
        <mxCell id="leD_Ixq3dRcQ08DTcReP-13" style="edgeStyle=orthogonalEdgeStyle;rounded=0;orthogonalLoop=1;jettySize=auto;html=1;exitX=0.5;exitY=0;exitDx=0;exitDy=0;" edge="1" parent="1" source="leD_Ixq3dRcQ08DTcReP-9" target="leD_Ixq3dRcQ08DTcReP-7">
          <mxGeometry relative="1" as="geometry" />
        </mxCell>
        <mxCell id="leD_Ixq3dRcQ08DTcReP-14" style="edgeStyle=orthogonalEdgeStyle;rounded=0;orthogonalLoop=1;jettySize=auto;html=1;exitX=0.5;exitY=0;exitDx=0;exitDy=0;" edge="1" parent="1" source="leD_Ixq3dRcQ08DTcReP-9" target="leD_Ixq3dRcQ08DTcReP-12">
          <mxGeometry relative="1" as="geometry" />
        </mxCell>
        <mxCell id="leD_Ixq3dRcQ08DTcReP-9" value="心电、B超、内科检查" style="rounded=0;whiteSpace=wrap;html=1;" vertex="1" parent="1">
          <mxGeometry x="-776.5" y="-300" width="160" height="30" as="geometry" />
        </mxCell>
        <mxCell id="leD_Ixq3dRcQ08DTcReP-16" style="edgeStyle=orthogonalEdgeStyle;rounded=0;orthogonalLoop=1;jettySize=auto;html=1;exitX=0.5;exitY=0;exitDx=0;exitDy=0;" edge="1" parent="1" source="leD_Ixq3dRcQ08DTcReP-12" target="leD_Ixq3dRcQ08DTcReP-6">
          <mxGeometry relative="1" as="geometry" />
        </mxCell>
        <mxCell id="leD_Ixq3dRcQ08DTcReP-12" value="女性科检查" style="rounded=0;whiteSpace=wrap;html=1;" vertex="1" parent="1">
          <mxGeometry x="-670" y="-380" width="103" height="30" as="geometry" />
        </mxCell>
        <mxCell id="leD_Ixq3dRcQ08DTcReP-20" style="edgeStyle=orthogonalEdgeStyle;rounded=0;orthogonalLoop=1;jettySize=auto;html=1;exitX=0.5;exitY=0;exitDx=0;exitDy=0;entryX=0.5;entryY=1;entryDx=0;entryDy=0;" edge="1" parent="1" source="leD_Ixq3dRcQ08DTcReP-17" target="leD_Ixq3dRcQ08DTcReP-19">
          <mxGeometry relative="1" as="geometry" />
        </mxCell>
        <mxCell id="leD_Ixq3dRcQ08DTcReP-17" value="婚前教育及心理咨询" style="rounded=0;whiteSpace=wrap;html=1;" vertex="1" parent="1">
          <mxGeometry x="-765" y="-510" width="160" height="30" as="geometry" />
        </mxCell>
        <mxCell id="leD_Ixq3dRcQ08DTcReP-22" style="edgeStyle=orthogonalEdgeStyle;rounded=0;orthogonalLoop=1;jettySize=auto;html=1;exitX=0.5;exitY=0;exitDx=0;exitDy=0;" edge="1" parent="1" source="leD_Ixq3dRcQ08DTcReP-19" target="leD_Ixq3dRcQ08DTcReP-21">
          <mxGeometry relative="1" as="geometry" />
        </mxCell>
        <mxCell id="leD_Ixq3dRcQ08DTcReP-19" value="体检合格证" style="rounded=0;whiteSpace=wrap;html=1;" vertex="1" parent="1">
          <mxGeometry x="-747.5" y="-560" width="125" height="30" as="geometry" />
        </mxCell>
        <mxCell id="leD_Ixq3dRcQ08DTcReP-21" value="领取结婚证" style="rounded=0;whiteSpace=wrap;html=1;" vertex="1" parent="1">
          <mxGeometry x="-747.5" y="-614" width="125" height="30" as="geometry" />
        </mxCell>
      </root>
    </mxGraphModel>
  </diagram>
</mxfile>
